<?xml version="1.0" encoding="UTF-8" standalone="no"?>
<!-- Created with Inkscape (http://www.inkscape.org/) -->

<svg
   width="81.030251mm"
   height="66.01445mm"
   viewBox="0 0 81.030248 66.014451"
   version="1.1"
   id="svg5"
   sodipodi:docname="manifold.svg"
   inkscape:version="1.2 (dc2aeda, 2022-05-15)"
   xmlns:inkscape="http://www.inkscape.org/namespaces/inkscape"
   xmlns:sodipodi="http://sodipodi.sourceforge.net/DTD/sodipodi-0.dtd"
   xmlns:xlink="http://www.w3.org/1999/xlink"
   xmlns="http://www.w3.org/2000/svg"
   xmlns:svg="http://www.w3.org/2000/svg">
  <sodipodi:namedview
     id="namedview7"
     pagecolor="#ffffff"
     bordercolor="#000000"
     borderopacity="0.25"
     inkscape:showpageshadow="2"
     inkscape:pageopacity="0.0"
     inkscape:pagecheckerboard="0"
     inkscape:deskcolor="#d1d1d1"
     inkscape:document-units="mm"
     showgrid="false"
     inkscape:zoom="1.1603869"
     inkscape:cx="-9.0487061"
     inkscape:cy="126.68189"
     inkscape:window-width="1440"
     inkscape:window-height="872"
     inkscape:window-x="0"
     inkscape:window-y="568"
     inkscape:window-maximized="0"
     inkscape:current-layer="layer1" />
  <defs
     id="defs2">
    <linearGradient
       inkscape:collect="always"
       id="linearGradient3060">
      <stop
         style="stop-color:#f70000;stop-opacity:1;"
         offset="0"
         id="stop3056" />
      <stop
         style="stop-color:#000000;stop-opacity:0;"
         offset="1"
         id="stop3058" />
    </linearGradient>
    <radialGradient
       inkscape:collect="always"
       xlink:href="#linearGradient3060"
       id="radialGradient3064"
       cx="82.846153"
       cy="45.953598"
       fx="82.846153"
       fy="45.953598"
       r="64.029129"
       gradientTransform="matrix(1,0,0,0.46836412,0,24.430582)"
       gradientUnits="userSpaceOnUse" />
    <filter
       inkscape:collect="always"
       style="color-interpolation-filters:sRGB"
       id="filter3256"
       x="-0.12171621"
       y="-0.18701506"
       width="1.2434324"
       height="1.3738673">
      <feGaussianBlur
         inkscape:collect="always"
         stdDeviation="1.6818507"
         id="feGaussianBlur3258" />
    </filter>
  </defs>
  <g
     inkscape:label="Layer 1"
     inkscape:groupmode="layer"
     id="layer1"
     transform="translate(-54.992399,-12.662072)">
    <rect
       style="fill:#ffffff;fill-opacity:1;stroke:#101010;stroke-width:0.0788693;stroke-linecap:round;stroke-linejoin:round;stroke-dasharray:none;stroke-opacity:1"
       id="rect8199"
       width="80.951378"
       height="65.935577"
       x="55.031834"
       y="12.701507"
       inkscape:label="rect8199"
       inkscape:export-filename="rect8199.png"
       inkscape:export-xdpi="96"
       inkscape:export-ydpi="96" />
    <path
       style="fill:none;stroke:#000000;stroke-width:0.264583;stroke-opacity:1"
       d="m 59.048938,22.554502 c 16.759249,11.590508 12.686906,31.482326 27.723242,46.048774 14.6354,14.178047 29.1329,-42.916204 46.51866,-36.964322"
       id="path63"
       sodipodi:nodetypes="csc" />
    <path
       style="fill:none;stroke:url(#radialGradient3064);stroke-width:10;stroke-linecap:round;stroke-linejoin:round;stroke-dasharray:none;stroke-opacity:1;filter:url(#filter3256)"
       d="M 59.058436,22.63109 C 75.817685,34.221598 71.745342,54.113416 86.781678,68.679864 101.41708,82.857911 115.91458,25.76366 133.30033,31.715542"
       id="path63-0"
       sodipodi:nodetypes="csc" />
    <path
       style="fill:#800000;fill-opacity:1;stroke:#f20505;stroke-width:0;stroke-linecap:round;stroke-linejoin:round;stroke-dasharray:none;stroke-opacity:1"
       id="path4108"
       sodipodi:type="arc"
       sodipodi:cx="74.69075"
       sodipodi:cy="49.893612"
       sodipodi:rx="0.83770466"
       sodipodi:ry="0.91939706"
       sodipodi:start="4.7267538"
       sodipodi:end="4.7123895"
       sodipodi:arc-type="arc"
       d="m 74.702783,48.97431 a 0.83770466,0.91939706 0 0 1 0.825623,0.929207 0.83770466,0.91939706 0 0 1 -0.843673,0.909468 0.83770466,0.91939706 0 0 1 -0.831682,-0.922675 0.83770466,0.91939706 0 0 1 0.837699,-0.916095"
       sodipodi:open="true" />
    <path
       style="fill:#800000;fill-opacity:1;stroke:#f20505;stroke-width:0;stroke-linecap:round;stroke-linejoin:round;stroke-dasharray:none;stroke-opacity:1"
       id="path4108-4"
       sodipodi:type="arc"
       sodipodi:cx="64.47242"
       sodipodi:cy="27.140453"
       sodipodi:rx="0.83770466"
       sodipodi:ry="0.91939706"
       sodipodi:start="4.7267538"
       sodipodi:end="4.7123895"
       sodipodi:arc-type="arc"
       d="m 64.484453,26.221151 a 0.83770466,0.91939706 0 0 1 0.825623,0.929207 0.83770466,0.91939706 0 0 1 -0.843673,0.909469 0.83770466,0.91939706 0 0 1 -0.831683,-0.922676 0.83770466,0.91939706 0 0 1 0.8377,-0.916095"
       sodipodi:open="true" />
    <path
       style="fill:#800000;fill-opacity:1;stroke:#f20505;stroke-width:0;stroke-linecap:round;stroke-linejoin:round;stroke-dasharray:none;stroke-opacity:1"
       id="path4108-7"
       sodipodi:type="arc"
       sodipodi:cx="105.70204"
       sodipodi:cy="61.055668"
       sodipodi:rx="0.83770466"
       sodipodi:ry="0.91939706"
       sodipodi:start="4.7267538"
       sodipodi:end="4.7123895"
       sodipodi:arc-type="arc"
       d="m 105.71407,60.136366 a 0.83770466,0.91939706 0 0 1 0.82563,0.929207 0.83770466,0.91939706 0 0 1 -0.84368,0.909468 0.83770466,0.91939706 0 0 1 -0.83168,-0.922675 0.83770466,0.91939706 0 0 1 0.8377,-0.916095"
       sodipodi:open="true" />
    <path
       style="fill:#800000;fill-opacity:1;stroke:#f20505;stroke-width:0;stroke-linecap:round;stroke-linejoin:round;stroke-dasharray:none;stroke-opacity:1"
       id="path4108-8"
       sodipodi:type="arc"
       sodipodi:cx="107.56784"
       sodipodi:cy="-54.684933"
       sodipodi:rx="0.83770466"
       sodipodi:ry="0.91939706"
       sodipodi:start="4.7267538"
       sodipodi:end="4.7123895"
       sodipodi:arc-type="arc"
       d="m 107.57987,-55.604235 a 0.83770466,0.91939706 0 0 1 0.82563,0.929207 0.83770466,0.91939706 0 0 1 -0.84368,0.909469 0.83770466,0.91939706 0 0 1 -0.83168,-0.922676 0.83770466,0.91939706 0 0 1 0.8377,-0.916095"
       sodipodi:open="true"
       transform="scale(1,-1)" />
    <path
       style="fill:#800000;fill-opacity:1;stroke:#f20505;stroke-width:0;stroke-linecap:round;stroke-linejoin:round;stroke-dasharray:none;stroke-opacity:1"
       id="path4108-38"
       sodipodi:type="arc"
       sodipodi:cx="77.605209"
       sodipodi:cy="50.86414"
       sodipodi:rx="0.83770466"
       sodipodi:ry="0.91939706"
       sodipodi:start="4.7267538"
       sodipodi:end="4.7123895"
       sodipodi:arc-type="arc"
       d="m 77.617242,49.944837 a 0.83770466,0.91939706 0 0 1 0.825623,0.929208 0.83770466,0.91939706 0 0 1 -0.843673,0.909468 0.83770466,0.91939706 0 0 1 -0.831682,-0.922676 0.83770466,0.91939706 0 0 1 0.837699,-0.916094"
       sodipodi:open="true" />
    <path
       style="fill:#800000;fill-opacity:1;stroke:#f20505;stroke-width:0;stroke-linecap:round;stroke-linejoin:round;stroke-dasharray:none;stroke-opacity:1"
       id="path4108-15"
       sodipodi:type="arc"
       sodipodi:cx="80.924469"
       sodipodi:cy="60.167416"
       sodipodi:rx="0.83770466"
       sodipodi:ry="0.91939706"
       sodipodi:start="4.7267538"
       sodipodi:end="4.7123895"
       sodipodi:arc-type="arc"
       d="m 80.936502,59.248113 a 0.83770466,0.91939706 0 0 1 0.825623,0.929208 0.83770466,0.91939706 0 0 1 -0.843673,0.909468 0.83770466,0.91939706 0 0 1 -0.831682,-0.922675 0.83770466,0.91939706 0 0 1 0.837699,-0.916095"
       sodipodi:open="true" />
    <path
       style="fill:#800000;fill-opacity:1;stroke:#f20505;stroke-width:0;stroke-linecap:round;stroke-linejoin:round;stroke-dasharray:none;stroke-opacity:1"
       id="path4108-35"
       sodipodi:type="arc"
       sodipodi:cx="115.47282"
       sodipodi:cy="45.581375"
       sodipodi:rx="0.83770466"
       sodipodi:ry="0.91939706"
       sodipodi:start="4.7267538"
       sodipodi:end="4.7123895"
       sodipodi:arc-type="arc"
       d="m 115.48485,44.662073 a 0.83770466,0.91939706 0 0 1 0.82562,0.929207 0.83770466,0.91939706 0 0 1 -0.84367,0.909468 0.83770466,0.91939706 0 0 1 -0.83168,-0.922675 0.83770466,0.91939706 0 0 1 0.8377,-0.916095"
       sodipodi:open="true" />
    <path
       style="fill:#800000;fill-opacity:1;stroke:#f20505;stroke-width:0;stroke-linecap:round;stroke-linejoin:round;stroke-dasharray:none;stroke-opacity:1"
       id="path4108-43"
       sodipodi:type="arc"
       sodipodi:cx="115.97426"
       sodipodi:cy="36.966438"
       sodipodi:rx="0.83770466"
       sodipodi:ry="0.91939706"
       sodipodi:start="4.7267538"
       sodipodi:end="4.7123895"
       sodipodi:arc-type="arc"
       d="m 115.98629,36.047136 a 0.83770466,0.91939706 0 0 1 0.82562,0.929207 0.83770466,0.91939706 0 0 1 -0.84367,0.909469 0.83770466,0.91939706 0 0 1 -0.83168,-0.922676 0.83770466,0.91939706 0 0 1 0.8377,-0.916095"
       sodipodi:open="true" />
    <path
       style="fill:#800000;fill-opacity:1;stroke:#f20505;stroke-width:0;stroke-linecap:round;stroke-linejoin:round;stroke-dasharray:none;stroke-opacity:1"
       id="path4108-95"
       sodipodi:type="arc"
       sodipodi:cx="95.323509"
       sodipodi:cy="71.808197"
       sodipodi:rx="0.83770466"
       sodipodi:ry="0.91939706"
       sodipodi:start="4.7267538"
       sodipodi:end="4.7123895"
       sodipodi:arc-type="arc"
       d="M 95.335542,70.888895 A 0.83770466,0.91939706 0 0 1 96.161165,71.818102 0.83770466,0.91939706 0 0 1 95.317492,72.72757 0.83770466,0.91939706 0 0 1 94.48581,71.804895 0.83770466,0.91939706 0 0 1 95.323509,70.8888"
       sodipodi:open="true" />
    <path
       style="fill:#800000;fill-opacity:1;stroke:#f20505;stroke-width:0;stroke-linecap:round;stroke-linejoin:round;stroke-dasharray:none;stroke-opacity:1"
       id="path4108-49"
       sodipodi:type="arc"
       sodipodi:cx="76.296211"
       sodipodi:cy="48.947384"
       sodipodi:rx="0.83770466"
       sodipodi:ry="0.91939706"
       sodipodi:start="4.7267538"
       sodipodi:end="4.7123895"
       sodipodi:arc-type="arc"
       d="m 76.308244,48.028082 a 0.83770466,0.91939706 0 0 1 0.825623,0.929207 0.83770466,0.91939706 0 0 1 -0.843673,0.909468 0.83770466,0.91939706 0 0 1 -0.831682,-0.922675 0.83770466,0.91939706 0 0 1 0.837699,-0.916095"
       sodipodi:open="true" />
    <path
       style="fill:#800000;fill-opacity:1;stroke:#f20505;stroke-width:0;stroke-linecap:round;stroke-linejoin:round;stroke-dasharray:none;stroke-opacity:1"
       id="path4108-17"
       sodipodi:type="arc"
       sodipodi:cx="73.491203"
       sodipodi:cy="42.682865"
       sodipodi:rx="0.83770466"
       sodipodi:ry="0.91939706"
       sodipodi:start="4.7267538"
       sodipodi:end="4.7123895"
       sodipodi:arc-type="arc"
       d="m 73.503236,41.763563 a 0.83770466,0.91939706 0 0 1 0.825623,0.929207 0.83770466,0.91939706 0 0 1 -0.843673,0.909468 0.83770466,0.91939706 0 0 1 -0.831682,-0.922675 0.83770466,0.91939706 0 0 1 0.837699,-0.916095"
       sodipodi:open="true" />
    <path
       style="fill:#800000;fill-opacity:1;stroke:#f20505;stroke-width:0;stroke-linecap:round;stroke-linejoin:round;stroke-dasharray:none;stroke-opacity:1"
       id="path4108-2"
       sodipodi:type="arc"
       sodipodi:cx="75.402451"
       sodipodi:cy="45.677197"
       sodipodi:rx="0.83770466"
       sodipodi:ry="0.91939706"
       sodipodi:start="4.7267538"
       sodipodi:end="4.7123895"
       sodipodi:arc-type="arc"
       d="m 75.414484,44.757894 a 0.83770466,0.91939706 0 0 1 0.825623,0.929208 0.83770466,0.91939706 0 0 1 -0.843673,0.909468 0.83770466,0.91939706 0 0 1 -0.831683,-0.922676 0.83770466,0.91939706 0 0 1 0.8377,-0.916095"
       sodipodi:open="true" />
    <path
       style="fill:#800000;fill-opacity:1;stroke:#f20505;stroke-width:0;stroke-linecap:round;stroke-linejoin:round;stroke-dasharray:none;stroke-opacity:1"
       id="path4108-6"
       sodipodi:type="arc"
       sodipodi:cx="77.433372"
       sodipodi:cy="56.20105"
       sodipodi:rx="0.83770466"
       sodipodi:ry="0.91939706"
       sodipodi:start="4.7267538"
       sodipodi:end="4.7123895"
       sodipodi:arc-type="arc"
       d="m 77.445406,55.281748 a 0.83770466,0.91939706 0 0 1 0.825623,0.929207 0.83770466,0.91939706 0 0 1 -0.843673,0.909468 0.83770466,0.91939706 0 0 1 -0.831683,-0.922675 0.83770466,0.91939706 0 0 1 0.837699,-0.916095"
       sodipodi:open="true" />
    <path
       style="fill:#800000;fill-opacity:1;stroke:#f20505;stroke-width:0;stroke-linecap:round;stroke-linejoin:round;stroke-dasharray:none;stroke-opacity:1"
       id="path4108-9"
       sodipodi:type="arc"
       sodipodi:cx="71.599098"
       sodipodi:cy="39.953701"
       sodipodi:rx="0.83770466"
       sodipodi:ry="0.91939706"
       sodipodi:start="4.7267538"
       sodipodi:end="4.7123895"
       sodipodi:arc-type="arc"
       d="m 71.611131,39.034399 a 0.83770466,0.91939706 0 0 1 0.825623,0.929207 0.83770466,0.91939706 0 0 1 -0.843673,0.909468 0.83770466,0.91939706 0 0 1 -0.831682,-0.922675 0.83770466,0.91939706 0 0 1 0.837699,-0.916095"
       sodipodi:open="true" />
    <path
       style="fill:#800000;fill-opacity:1;stroke:#f20505;stroke-width:0;stroke-linecap:round;stroke-linejoin:round;stroke-dasharray:none;stroke-opacity:1"
       id="path4108-5"
       sodipodi:type="arc"
       sodipodi:cx="110.0819"
       sodipodi:cy="49.536854"
       sodipodi:rx="0.83770466"
       sodipodi:ry="0.91939706"
       sodipodi:start="4.7267538"
       sodipodi:end="4.7123895"
       sodipodi:arc-type="arc"
       d="m 110.09393,48.617552 a 0.83770466,0.91939706 0 0 1 0.82563,0.929207 0.83770466,0.91939706 0 0 1 -0.84368,0.909468 0.83770466,0.91939706 0 0 1 -0.83168,-0.922675 0.83770466,0.91939706 0 0 1 0.8377,-0.916095"
       sodipodi:open="true" />
    <path
       style="fill:#800000;fill-opacity:1;stroke:#f20505;stroke-width:0;stroke-linecap:round;stroke-linejoin:round;stroke-dasharray:none;stroke-opacity:1"
       id="path4108-54"
       sodipodi:type="arc"
       sodipodi:cx="69.470604"
       sodipodi:cy="32.132015"
       sodipodi:rx="0.83770466"
       sodipodi:ry="0.91939706"
       sodipodi:start="4.7267538"
       sodipodi:end="4.7123895"
       sodipodi:arc-type="arc"
       d="m 69.482637,31.212713 a 0.83770466,0.91939706 0 0 1 0.825623,0.929207 0.83770466,0.91939706 0 0 1 -0.843673,0.909469 0.83770466,0.91939706 0 0 1 -0.831682,-0.922676 0.83770466,0.91939706 0 0 1 0.837699,-0.916095"
       sodipodi:open="true" />
    <path
       style="fill:#800000;fill-opacity:1;stroke:#f20505;stroke-width:0;stroke-linecap:round;stroke-linejoin:round;stroke-dasharray:none;stroke-opacity:1"
       id="path4108-18"
       sodipodi:type="arc"
       sodipodi:cx="110.0819"
       sodipodi:cy="51.768246"
       sodipodi:rx="0.83770466"
       sodipodi:ry="0.91939706"
       sodipodi:start="4.7267538"
       sodipodi:end="4.7123895"
       sodipodi:arc-type="arc"
       d="m 110.09393,50.848943 a 0.83770466,0.91939706 0 0 1 0.82563,0.929208 0.83770466,0.91939706 0 0 1 -0.84368,0.909468 0.83770466,0.91939706 0 0 1 -0.83168,-0.922675 0.83770466,0.91939706 0 0 1 0.8377,-0.916095"
       sodipodi:open="true" />
  </g>
</svg>
